<?xml version="1.0" standalone="no"?>
<!DOCTYPE svg PUBLIC "-//W3C//DTD SVG 20010904//EN"
 "http://www.w3.org/TR/2001/REC-SVG-20010904/DTD/svg10.dtd">
<svg version="1.0" xmlns="http://www.w3.org/2000/svg"
 width="360.000000pt" height="360.000000pt" viewBox="0 0 360.000000 360.000000"
 preserveAspectRatio="xMidYMid meet">

<g transform="translate(0.000000,360.000000) scale(0.100000,-0.100000)"
fill="#000000" stroke="none">
<path d="M1000 3555 c0 -70 -25 -110 -97 -156 -44 -27 -74 -56 -97 -92 -38
-59 -67 -88 -112 -110 -32 -16 -94 -80 -94 -97 0 -18 -63 -81 -100 -100 -37
-19 -100 -82 -100 -100 0 -18 -64 -81 -101 -100 -39 -21 -64 -47 -108 -121
-31 -49 -79 -79 -129 -79 -67 0 -62 48 -62 -601 l0 -589 23 -4 c12 -3 39 -7
59 -10 52 -7 83 -31 117 -90 59 -103 52 -100 299 -106 250 -6 240 -3 305 -101
23 -35 58 -74 77 -86 62 -38 101 -75 120 -113 19 -38 57 -74 120 -113 19 -13
45 -38 57 -56 23 -33 23 -39 23 -328 0 -322 -1 -327 -60 -377 l-32 -26 692 0
692 0 -32 26 c-50 42 -60 73 -60 177 0 107 16 143 80 184 63 39 101 75 120
113 19 38 57 74 119 113 65 42 75 66 81 192 6 130 17 154 87 190 56 28 78 49
118 114 19 31 44 63 57 71 15 9 63 16 140 20 133 6 145 12 199 106 34 59 65
83 117 90 20 3 47 7 60 10 l22 4 0 489 c0 538 5 501 -62 501 -44 0 -98 29
-119 64 -15 24 -19 51 -19 116 0 139 -15 168 -120 233 -19 12 -54 51 -78 87
-57 87 -83 100 -202 100 -163 0 -200 37 -200 200 0 117 -13 143 -103 199 -72
46 -97 86 -97 156 l0 45 -800 0 -800 0 0 -45z m1288 -275 c17 -16 38 -50 47
-74 15 -39 25 -48 81 -75 90 -43 98 -60 91 -177 -7 -108 3 -158 43 -206 33
-39 88 -49 228 -41 59 4 102 2 102 -3 0 -5 11 -21 24 -35 21 -23 36 -53 42
-87 3 -18 45 -51 74 -59 70 -18 96 -65 79 -141 -20 -92 -27 -101 -47 -57 -12
26 -22 39 -80 102 -34 36 -46 42 -97 48 -64 8 -201 0 -240 -15 -30 -12 -84
-69 -85 -91 0 -28 -50 -83 -108 -122 -31 -20 -57 -41 -57 -45 0 -15 -17 -32
-26 -27 -5 4 -9 0 -9 -7 0 -24 -24 -48 -54 -54 l-28 -5 7 91 c4 56 3 101 -3
118 -6 15 -13 40 -17 55 -8 38 -51 77 -86 77 -40 0 -84 42 -119 116 -37 79
-72 104 -148 104 -57 0 -61 -2 -125 -68 -52 -54 -57 -73 -56 -189 1 -74 -2
-96 -17 -117 l-19 -25 -282 -1 -282 0 -26 27 c-22 24 -25 37 -25 95 0 82 12
115 45 128 14 5 25 15 25 21 0 6 6 9 13 6 8 -3 28 14 48 40 19 25 44 55 57 68
12 12 22 28 22 34 0 7 8 11 18 9 9 -2 32 -31 50 -68 29 -55 40 -68 75 -83 47
-19 102 -22 112 -7 3 6 18 10 32 10 28 0 93 60 93 86 0 26 29 72 54 86 13 7
41 23 63 35 58 32 93 82 93 135 0 63 -13 100 -48 135 -39 38 -61 44 -195 49
-60 2 -117 9 -127 14 -18 9 -50 87 -50 120 0 13 23 69 33 82 1 1 157 5 347 8
190 3 364 7 387 8 34 2 47 -3 71 -28z m802 -1041 c20 -28 84 -97 75 -81 -3 7
18 -1 47 -18 29 -17 60 -34 67 -38 8 -5 18 -20 22 -35 9 -33 1 -128 -12 -143
-6 -8 -6 -36 1 -80 8 -50 8 -75 -1 -96 -31 -75 -53 24 -29 130 l10 43 -91 92
c-96 97 -119 138 -116 210 1 42 7 46 27 16z"/>
</g>
</svg>
